<svg xmlns="http://www.w3.org/2000/svg" xmlns:xlink="http://www.w3.org/1999/xlink" xmlns:lucid="lucid" width="1361" height="617"><g transform="translate(0 -99)" lucid:page-tab-id="I_brvF~S~4Sl"><path d="M0 0h1760v1360H0z" fill="#fff"/><path d="M800 640h560v75H800z" stroke="#333" stroke-width="2" fill="#fff"/><path d="M800 677.6h560" stroke="#333" stroke-width="2" fill="none"/><use xlink:href="#a" transform="matrix(1,0,0,1,807.9999999999999,648) translate(219.55 14.6)"/><use xlink:href="#b" transform="matrix(1,0,0,1,811.9999999999999,685.6) translate(0 14.6)"/><use xlink:href="#c" transform="matrix(1,0,0,1,811.9999999999999,685.6) translate(57.45 14.6)"/><use xlink:href="#d" transform="matrix(1,0,0,1,811.9999999999999,685.6) translate(95.4 14.6)"/><use xlink:href="#e" transform="matrix(1,0,0,1,811.9999999999999,685.6) translate(228.10000000000002 14.6)"/><use xlink:href="#f" transform="matrix(1,0,0,1,811.9999999999999,685.6) translate(277.1 14.6)"/><use xlink:href="#g" transform="matrix(1,0,0,1,811.9999999999999,685.6) translate(360 14.6)"/><path d="M0 200h600v415H0z" stroke="#333" stroke-width="2" fill="#fff"/><path d="M0 237.6h600M0 383.2h600" stroke="#333" stroke-width="2" fill="none"/><use xlink:href="#h" transform="matrix(1,0,0,1,8,208) translate(260.125 14.6)"/><use xlink:href="#i" transform="matrix(1,0,0,1,12,245.6) translate(0 14.600000000000003)"/><use xlink:href="#j" transform="matrix(1,0,0,1,12,245.6) translate(74.8 14.600000000000003)"/><use xlink:href="#k" transform="matrix(1,0,0,1,12,245.6) translate(0 36.2)"/><use xlink:href="#l" transform="matrix(1,0,0,1,12,245.6) translate(54.849999999999994 36.2)"/><use xlink:href="#m" transform="matrix(1,0,0,1,12,245.6) translate(0 57.800000000000004)"/><use xlink:href="#n" transform="matrix(1,0,0,1,12,245.6) translate(109.75 57.800000000000004)"/><use xlink:href="#o" transform="matrix(1,0,0,1,12,245.6) translate(0 79.40000000000002)"/><use xlink:href="#p" transform="matrix(1,0,0,1,12,245.6) translate(29.9 79.40000000000002)"/><use xlink:href="#q" transform="matrix(1,0,0,1,12,245.6) translate(0 101.00000000000001)"/><use xlink:href="#r" transform="matrix(1,0,0,1,12,245.6) translate(99.85000000000001 101.00000000000001)"/><use xlink:href="#s" transform="matrix(1,0,0,1,12,245.6) translate(0 122.60000000000001)"/><use xlink:href="#t" transform="matrix(1,0,0,1,12,245.6) translate(106.85000000000001 122.60000000000001)"/><use xlink:href="#u" transform="matrix(1,0,0,1,12,391.2) translate(0 14.400000000000015)"/><use xlink:href="#v" transform="matrix(1,0,0,1,12,391.2) translate(157.2 14.400000000000015)"/><use xlink:href="#w" transform="matrix(1,0,0,1,12,391.2) translate(0 36.000000000000014)"/><use xlink:href="#x" transform="matrix(1,0,0,1,12,391.2) translate(0 57.600000000000016)"/><use xlink:href="#y" transform="matrix(1,0,0,1,12,391.2) translate(48.45 57.600000000000016)"/><use xlink:href="#x" transform="matrix(1,0,0,1,12,391.2) translate(0 79.20000000000003)"/><use xlink:href="#z" transform="matrix(1,0,0,1,12,391.2) translate(48.45 79.20000000000003)"/><use xlink:href="#x" transform="matrix(1,0,0,1,12,391.2) translate(0 100.80000000000003)"/><use xlink:href="#A" transform="matrix(1,0,0,1,12,391.2) translate(48.45 100.80000000000003)"/><use xlink:href="#x" transform="matrix(1,0,0,1,12,391.2) translate(0 122.40000000000002)"/><use xlink:href="#B" transform="matrix(1,0,0,1,12,391.2) translate(48.45 122.40000000000002)"/><use xlink:href="#x" transform="matrix(1,0,0,1,12,391.2) translate(0 144.00000000000003)"/><use xlink:href="#C" transform="matrix(1,0,0,1,12,391.2) translate(48.45 144.00000000000003)"/><use xlink:href="#x" transform="matrix(1,0,0,1,12,391.2) translate(0 165.6)"/><use xlink:href="#D" transform="matrix(1,0,0,1,12,391.2) translate(48.45 165.6)"/><use xlink:href="#v" transform="matrix(1,0,0,1,12,391.2) translate(283.95 165.6)"/><use xlink:href="#x" transform="matrix(1,0,0,1,12,391.2) translate(0 187.20000000000002)"/><use xlink:href="#E" transform="matrix(1,0,0,1,12,391.2) translate(48.45 187.20000000000002)"/><use xlink:href="#F" transform="matrix(1,0,0,1,12,391.2) translate(0 208.79999999999998)"/><use xlink:href="#G" transform="matrix(1,0,0,1,12,391.2) translate(34.45 208.79999999999998)"/><path d="M798.1 678h-4.8v-1h4.8zm-9.57 0h-9.57v-1h9.57zm-14.35 0h-9.57v-1h9.58zm-14.35 0h-9.57v-1h9.57zm-14.35 0h-9.57v-1h9.58zm-14.35 0h-9.56v-1h9.56zm-22.68-1.56l1.75.42 1.82.14h4.76v1h-4.8l-1.94-.15-1.9-.46-1.78-.75.38-.92zm-7.8-9.12l.4 1.73.7 1.67.97 1.57-.85.5-1-1.62-.76-1.82-.45-1.92v-4.7h1zm-.02-9.2h-1v-1.82h1zm-.05-20.48h-1V635h1zm0-7.27h-1l-.03-9.24h1zm-.04-13.87h-1l-.02-9.25h1zm-.65-22.36l.45 1.9.15 1.94v4.64h-1v-4.6l-.14-1.82-.42-1.75-.7-1.7.9-.4zm-9.96-8.5l1.92.47 1.82.76 1.63 1-.5.86-1.58-.97-1.67-.7-1.73-.4h-4.85v-1zm-9.88 0v1l-9.82-.03v-1zm-14.73-.03v1h-9.82v-1zm-14.73-.02v1h-9.82v-1zm-14.73-.02v1l-9.82-.02v-1zm-14.73-.03v1h-9.82v-1zm-14.73-.02v1h-4.9v-1z" stroke="#333" stroke-width=".05" fill="#333"/><path d="M799 677.5l-17.94 10.6-.5-.85 16.48-9.75-16.5-9.75.52-.86z" stroke="#333" stroke-width=".05" fill="#333"/><path d="M601.5 586.5h-.5v-1h.5z" fill="#333"/><path d="M601.54 586.52h-.56v-1.04h.56zm-.5-1v.96h.45v-.96z" stroke="#333" stroke-width=".05" fill="#333"/><g><use xlink:href="#H" transform="matrix(1,0,0,1,678.8271604938271,637.636314838998) translate(0 12.444444444444446)"/></g><path d="M606.4 320.72h-4.9v-1h4.9zm14.74-.02h-9.82v-1h9.82zm14.73-.03l-9.82.02v-1l9.82-.03zm14.73-.02h-9.82v-1h9.82zm14.73-.03l-9.82.02v-1l9.83-.02zm14.73-.02h-9.82v-1h9.82zm15.25-2.24l-1.62 1-1.82.76-1.92.46h-4.97v-1h4.85l1.73-.4 1.67-.7 1.57-.97zm5.2-15.28v5.17l-.15 1.94-.46 1.9-.75 1.77-.92-.38.7-1.72.43-1.75.14-1.82v-5.12zm.02-15.46v10.3h-1v-10.3zm.02-15.45v10.3h-1v-10.3zm0-15.46V267h-1v-10.3zm.03-15.45v10.3h-1v-10.3zm0-5.15h-1v-6.04h1zm.03-25.76v1.06h-1v-1.06zm.02-15.46v10.3h-1v-10.3zm.02-15.45v10.3h-1v-10.3zm2.08-15.22l-.97 1.58-.7 1.67-.4 1.73v5.1h-1v-5.22l.46-1.92.76-1.82 1-1.63zm14.06-4.7h-4.76l-1.82.14-1.75.42-1.7.7-.4-.9 1.8-.75 1.9-.45 1.93-.15h4.8zm81.3 0h-4.77v-1h4.8zm-9.55 0h-9.57v-1h9.57zm-14.35 0h-9.57v-1h9.58zm-14.35 0h-9.57v-1h9.57zm-14.35 0h-9.57v-1h9.58zm-14.35 0h-9.56v-1h9.56z" stroke="#333" stroke-width=".05" fill="#333"/><path d="M799 159l-17.94 10.6-.5-.85 16.48-9.75-16.5-9.75.52-.86z" stroke="#333" stroke-width=".05" fill="#333"/><path d="M601.5 320.73h-.5v-1h.5z" fill="#333"/><path d="M601.54 320.75h-.56v-1.05h.56zm-.5-1v.95h.45v-.95z" stroke="#333" stroke-width=".05" fill="#333"/><g><use xlink:href="#H" transform="matrix(1,0,0,1,678.827160493827,211.39606854284872) translate(0 12.444444444444446)"/></g><path d="M800 100h560v118H800z" stroke="#333" stroke-width="2" fill="#fff"/><path d="M800 137.6h560" stroke="#333" stroke-width="2" fill="none"/><g><use xlink:href="#I" transform="matrix(1,0,0,1,807.9999999999998,108) translate(253.525 14.6)"/></g><g><use xlink:href="#b" transform="matrix(1,0,0,1,811.9999999999998,145.6) translate(0 14.500000000000002)"/><use xlink:href="#c" transform="matrix(1,0,0,1,811.9999999999998,145.6) translate(57.45 14.500000000000002)"/><use xlink:href="#J" transform="matrix(1,0,0,1,811.9999999999998,145.6) translate(95.4 14.500000000000002)"/><use xlink:href="#K" transform="matrix(1,0,0,1,811.9999999999998,145.6) translate(274.65 14.500000000000002)"/><use xlink:href="#L" transform="matrix(1,0,0,1,811.9999999999998,145.6) translate(357.59999999999997 14.500000000000002)"/><use xlink:href="#M" transform="matrix(1,0,0,1,811.9999999999998,145.6) translate(381.54999999999995 14.500000000000002)"/><use xlink:href="#b" transform="matrix(1,0,0,1,811.9999999999998,145.6) translate(0 36.1)"/><use xlink:href="#c" transform="matrix(1,0,0,1,811.9999999999998,145.6) translate(57.45 36.1)"/><use xlink:href="#J" transform="matrix(1,0,0,1,811.9999999999998,145.6) translate(95.4 36.1)"/><use xlink:href="#K" transform="matrix(1,0,0,1,811.9999999999998,145.6) translate(274.65 36.1)"/><use xlink:href="#f" transform="matrix(1,0,0,1,811.9999999999998,145.6) translate(357.59999999999997 36.1)"/><use xlink:href="#N" transform="matrix(1,0,0,1,811.9999999999998,145.6) translate(440.5 36.1)"/><use xlink:href="#b" transform="matrix(1,0,0,1,811.9999999999998,145.6) translate(0 57.7)"/><use xlink:href="#c" transform="matrix(1,0,0,1,811.9999999999998,145.6) translate(57.45 57.7)"/><use xlink:href="#O" transform="matrix(1,0,0,1,811.9999999999998,145.6) translate(95.4 57.7)"/><use xlink:href="#K" transform="matrix(1,0,0,1,811.9999999999998,145.6) translate(278.04999999999995 57.7)"/><use xlink:href="#f" transform="matrix(1,0,0,1,811.9999999999998,145.6) translate(360.99999999999994 57.7)"/><use xlink:href="#P" transform="matrix(1,0,0,1,811.9999999999998,145.6) translate(443.9 57.7)"/></g><path d="M800 286h560v286H800z" stroke="#333" stroke-width="2" fill="#fff"/><path d="M800 323.6h560m-560 37.6h560" stroke="#333" stroke-width="2" fill="none"/><g><use xlink:href="#Q" transform="matrix(1,0,0,1,808,294) translate(219.6 14.6)"/></g><g><use xlink:href="#R" transform="matrix(1,0,0,1,812,331.6) translate(0 14.6)"/><use xlink:href="#S" transform="matrix(1,0,0,1,812,331.6) translate(119.75 14.6)"/></g><g><use xlink:href="#x" transform="matrix(1,0,0,1,812,369.20000000000005) translate(0 14.700000000000012)"/><use xlink:href="#T" transform="matrix(1,0,0,1,812,369.20000000000005) translate(48.45 14.700000000000012)"/><use xlink:href="#U" transform="matrix(1,0,0,1,812,369.20000000000005) translate(208.3 14.700000000000012)"/><use xlink:href="#x" transform="matrix(1,0,0,1,812,369.20000000000005) translate(0 36.30000000000001)"/><use xlink:href="#V" transform="matrix(1,0,0,1,812,369.20000000000005) translate(48.45 36.30000000000001)"/><use xlink:href="#W" transform="matrix(1,0,0,1,812,369.20000000000005) translate(221.25 36.30000000000001)"/><use xlink:href="#x" transform="matrix(1,0,0,1,812,369.20000000000005) translate(0 57.90000000000001)"/><use xlink:href="#X" transform="matrix(1,0,0,1,812,369.20000000000005) translate(48.45 57.90000000000001)"/><use xlink:href="#W" transform="matrix(1,0,0,1,812,369.20000000000005) translate(222.2 57.90000000000001)"/><use xlink:href="#x" transform="matrix(1,0,0,1,812,369.20000000000005) translate(0 79.50000000000003)"/><use xlink:href="#Y" transform="matrix(1,0,0,1,812,369.20000000000005) translate(48.45 79.50000000000003)"/><use xlink:href="#W" transform="matrix(1,0,0,1,812,369.20000000000005) translate(221.25 79.50000000000003)"/><use xlink:href="#x" transform="matrix(1,0,0,1,812,369.20000000000005) translate(0 101.10000000000002)"/><use xlink:href="#Z" transform="matrix(1,0,0,1,812,369.20000000000005) translate(48.45 101.10000000000002)"/><use xlink:href="#W" transform="matrix(1,0,0,1,812,369.20000000000005) translate(223.25 101.10000000000002)"/><use xlink:href="#x" transform="matrix(1,0,0,1,812,369.20000000000005) translate(0 122.70000000000002)"/><use xlink:href="#aa" transform="matrix(1,0,0,1,812,369.20000000000005) translate(48.45 122.70000000000002)"/><use xlink:href="#W" transform="matrix(1,0,0,1,812,369.20000000000005) translate(222.2 122.70000000000002)"/><use xlink:href="#x" transform="matrix(1,0,0,1,812,369.20000000000005) translate(0 144.3)"/><use xlink:href="#ab" transform="matrix(1,0,0,1,812,369.20000000000005) translate(48.45 144.3)"/><use xlink:href="#W" transform="matrix(1,0,0,1,812,369.20000000000005) translate(221.25 144.3)"/><use xlink:href="#ac" transform="matrix(1,0,0,1,812,369.20000000000005) translate(0 165.9)"/><use xlink:href="#ad" transform="matrix(1,0,0,1,812,369.20000000000005) translate(93.4 165.9)"/><use xlink:href="#x" transform="matrix(1,0,0,1,812,369.20000000000005) translate(0 187.5)"/><use xlink:href="#ae" transform="matrix(1,0,0,1,812,369.20000000000005) translate(48.45 187.5)"/></g><path d="M680.6 429.5h-79.1v-1h79.1zm102.02 0h-42.4v-1h42.4z" stroke="#333" stroke-width=".05" fill="#333"/><path d="M797.38 429l-14.26 4.64v-9.28z" fill="#333"/><path d="M799 429l-16.38 5.32v-10.64zm-15.38 3.95l12.14-3.95-12.14-3.95z" stroke="#333" stroke-width=".05" fill="#333"/><path d="M601.5 429.5h-.5v-1h.5z" fill="#333"/><path d="M601.54 429.52h-.56v-1.04h.56zm-.5-1v.96h.45v-.96z" stroke="#333" stroke-width=".05" fill="#333"/><g><use xlink:href="#af" transform="matrix(1,0,0,1,680.5944782356918,419.6666666666667) translate(0 12.444444444444446)"/></g><defs><path d="M24-248c93 1 206-16 204 79-1 75-69 88-152 82V0H24v-248zm52 121c47 0 100 7 100-41 0-47-54-39-100-39v80" id="ag"/><path d="M185-48c-13 30-37 53-82 52C43 2 14-33 14-96s30-98 90-98c62 0 83 45 84 108H66c0 31 8 55 39 56 18 0 30-7 34-22zm-45-69c5-46-57-63-70-21-2 6-4 13-4 21h74" id="ah"/><path d="M135-150c-39-12-60 13-60 57V0H25l-1-190h47c2 13-1 29 3 40 6-28 27-53 61-41v41" id="ai"/><path d="M137-138c1-29-70-34-71-4 15 46 118 7 119 86 1 83-164 76-172 9l43-7c4 19 20 25 44 25 33 8 57-30 24-41C81-84 22-81 20-136c-2-80 154-74 161-7" id="aj"/><path d="M25-224v-37h50v37H25zM25 0v-190h50V0H25" id="ak"/><path d="M115-3C79 11 28 4 28-45v-112H4v-33h27l15-45h31v45h36v33H77v99c-1 23 16 31 38 25v30" id="al"/><path d="M135-194c87-1 58 113 63 194h-50c-7-57 23-157-34-157-59 0-34 97-39 157H25l-1-190h47c2 12-1 28 3 38 12-26 28-41 61-42" id="am"/><path d="M190-63c-7 42-38 67-86 67-59 0-84-38-90-98-12-110 154-137 174-36l-49 2c-2-19-15-32-35-32-30 0-35 28-38 64-6 74 65 87 74 30" id="an"/><path d="M133-34C117-15 103 5 69 4 32 3 11-16 11-54c-1-60 55-63 116-61 1-26-3-47-28-47-18 1-26 9-28 27l-52-2c7-38 36-58 82-57s74 22 75 68l1 82c-1 14 12 18 25 15v27c-30 8-71 5-69-32zm-48 3c29 0 43-24 42-57-32 0-66-3-65 30 0 17 8 27 23 27" id="ao"/><g id="a"><use transform="matrix(0.05,0,0,0.05,0,0)" xlink:href="#ag"/><use transform="matrix(0.05,0,0,0.05,12,0)" xlink:href="#ah"/><use transform="matrix(0.05,0,0,0.05,22,0)" xlink:href="#ai"/><use transform="matrix(0.05,0,0,0.05,29,0)" xlink:href="#aj"/><use transform="matrix(0.05,0,0,0.05,39,0)" xlink:href="#ak"/><use transform="matrix(0.05,0,0,0.05,44,0)" xlink:href="#aj"/><use transform="matrix(0.05,0,0,0.05,54,0)" xlink:href="#al"/><use transform="matrix(0.05,0,0,0.05,59.95,0)" xlink:href="#ah"/><use transform="matrix(0.05,0,0,0.05,69.95,0)" xlink:href="#am"/><use transform="matrix(0.05,0,0,0.05,80.9,0)" xlink:href="#an"/><use transform="matrix(0.05,0,0,0.05,90.9,0)" xlink:href="#ak"/><use transform="matrix(0.05,0,0,0.05,95.9,0)" xlink:href="#ao"/></g><path fill="#333" d="M118-107v75H92v-75H18v-26h74v-75h26v75h74v26h-74" id="ap"/><path fill="#333" d="M135-143c-3-34-86-38-87 0 15 53 115 12 119 90S17 21 10-45l28-5c4 36 97 45 98 0-10-56-113-15-118-90-4-57 82-63 122-42 12 7 21 19 24 35" id="aq"/><path fill="#333" d="M59-47c-2 24 18 29 38 22v24C64 9 27 4 27-40v-127H5v-23h24l9-43h21v43h35v23H59v120" id="ar"/><path fill="#333" d="M141-36C126-15 110 5 73 4 37 3 15-17 15-53c-1-64 63-63 125-63 3-35-9-54-41-54-24 1-41 7-42 31l-33-3c5-37 33-52 76-52 45 0 72 20 72 64v82c-1 20 7 32 28 27v20c-31 9-61-2-59-35zM48-53c0 20 12 33 32 33 41-3 63-29 60-74-43 2-92-5-92 41" id="as"/><path fill="#333" d="M24-231v-30h32v30H24zM24 0v-190h32V0H24" id="at"/><path fill="#333" d="M96-169c-40 0-48 33-48 73s9 75 48 75c24 0 41-14 43-38l32 2c-6 37-31 61-74 61-59 0-76-41-82-99-10-93 101-131 147-64 4 7 5 14 7 22l-32 3c-4-21-16-35-41-35" id="au"/><g id="b"><use transform="matrix(0.05,0,0,0.05,0,0)" xlink:href="#ap"/><use transform="matrix(0.05,0,0,0.05,10.5,0)" xlink:href="#aq"/><use transform="matrix(0.05,0,0,0.05,19.5,0)" xlink:href="#ar"/><use transform="matrix(0.05,0,0,0.05,24.5,0)" xlink:href="#as"/><use transform="matrix(0.05,0,0,0.05,34.5,0)" xlink:href="#ar"/><use transform="matrix(0.05,0,0,0.05,39.5,0)" xlink:href="#at"/><use transform="matrix(0.05,0,0,0.05,43.45,0)" xlink:href="#au"/></g><path fill="#333" d="M108 0H70L1-190h34L89-25l56-165h34" id="av"/><path fill="#333" d="M100-194c62-1 85 37 85 99 1 63-27 99-86 99S16-35 15-95c0-66 28-99 85-99zM99-20c44 1 53-31 53-75 0-43-8-75-51-75s-53 32-53 75 10 74 51 75" id="aw"/><path fill="#333" d="M85-194c31 0 48 13 60 33l-1-100h32l1 261h-30c-2-10 0-23-3-31C134-8 116 4 85 4 32 4 16-35 15-94c0-66 23-100 70-100zm9 24c-40 0-46 34-46 75 0 40 6 74 45 74 42 0 51-32 51-76 0-42-9-74-50-73" id="ax"/><g id="c"><use transform="matrix(0.05,0,0,0.05,0,0)" xlink:href="#av"/><use transform="matrix(0.05,0,0,0.05,9,0)" xlink:href="#aw"/><use transform="matrix(0.05,0,0,0.05,19,0)" xlink:href="#at"/><use transform="matrix(0.05,0,0,0.05,22.95,0)" xlink:href="#ax"/></g><path fill="#333" d="M24 0v-261h32V0H24" id="ay"/><path fill="#333" d="M100-194c63 0 86 42 84 106H49c0 40 14 67 53 68 26 1 43-12 49-29l28 8c-11 28-37 45-77 45C44 4 14-33 15-96c1-61 26-98 85-98zm52 81c6-60-76-77-97-28-3 7-6 17-6 28h103" id="az"/><path fill="#333" d="M117-194c89-4 53 116 60 194h-32v-121c0-31-8-49-39-48C34-167 62-67 57 0H25l-1-190h30c1 10-1 24 2 32 11-22 29-35 61-36" id="aA"/><path fill="#333" d="M114-163C36-179 61-72 57 0H25l-1-190h30c1 12-1 29 2 39 6-27 23-49 58-41v29" id="aB"/><path fill="#333" d="M87 75C49 33 22-17 22-94c0-76 28-126 65-167h31c-38 41-64 92-64 168S80 34 118 75H87" id="aC"/><path fill="#333" d="M33-154v-36h34v36H33zM33 0v-36h34V0H33" id="aD"/><path fill="#333" d="M177-190C167-65 218 103 67 71c-23-6-38-20-44-43l32-5c15 47 100 32 89-28v-30C133-14 115 1 83 1 29 1 15-40 15-95c0-56 16-97 71-98 29-1 48 16 59 35 1-10 0-23 2-32h30zM94-22c36 0 50-32 50-73 0-42-14-75-50-75-39 0-46 34-46 75s6 73 46 73" id="aE"/><g id="d"><use transform="matrix(0.05,0,0,0.05,0,0)" xlink:href="#ay"/><use transform="matrix(0.05,0,0,0.05,3.95,0)" xlink:href="#ay"/><use transform="matrix(0.05,0,0,0.05,7.9,0)" xlink:href="#az"/><use transform="matrix(0.05,0,0,0.05,17.9,0)" xlink:href="#aA"/><use transform="matrix(0.05,0,0,0.05,27.899999999999995,0)" xlink:href="#as"/><use transform="matrix(0.05,0,0,0.05,37.9,0)" xlink:href="#aB"/><use transform="matrix(0.05,0,0,0.05,43.85,0)" xlink:href="#aC"/><use transform="matrix(0.05,0,0,0.05,49.800000000000004,0)" xlink:href="#aq"/><use transform="matrix(0.05,0,0,0.05,58.800000000000004,0)" xlink:href="#ar"/><use transform="matrix(0.05,0,0,0.05,63.800000000000004,0)" xlink:href="#ax"/><use transform="matrix(0.05,0,0,0.05,73.80000000000001,0)" xlink:href="#aD"/><use transform="matrix(0.05,0,0,0.05,78.80000000000001,0)" xlink:href="#aD"/><use transform="matrix(0.05,0,0,0.05,83.80000000000001,0)" xlink:href="#aq"/><use transform="matrix(0.05,0,0,0.05,92.80000000000001,0)" xlink:href="#ar"/><use transform="matrix(0.05,0,0,0.05,97.80000000000001,0)" xlink:href="#aB"/><use transform="matrix(0.05,0,0,0.05,103.75,0)" xlink:href="#at"/><use transform="matrix(0.05,0,0,0.05,107.7,0)" xlink:href="#aA"/><use transform="matrix(0.05,0,0,0.05,117.7,0)" xlink:href="#aE"/></g><path fill="#333" d="M141 0L90-78 38 0H4l68-98-65-92h35l48 74 47-74h35l-64 92 68 98h-35" id="aF"/><path fill="#333" d="M68-38c1 34 0 65-14 84H32c9-13 17-26 17-46H33v-38h35" id="aG"/><g id="e"><use transform="matrix(0.05,0,0,0.05,0,0)" xlink:href="#ar"/><use transform="matrix(0.05,0,0,0.05,5,0)" xlink:href="#az"/><use transform="matrix(0.05,0,0,0.05,15,0)" xlink:href="#aF"/><use transform="matrix(0.05,0,0,0.05,24,0)" xlink:href="#ar"/><use transform="matrix(0.05,0,0,0.05,29,0)" xlink:href="#aw"/><use transform="matrix(0.05,0,0,0.05,39,0)" xlink:href="#aG"/></g><g id="f"><use transform="matrix(0.05,0,0,0.05,0,0)" xlink:href="#aq"/><use transform="matrix(0.05,0,0,0.05,9,0)" xlink:href="#ar"/><use transform="matrix(0.05,0,0,0.05,14,0)" xlink:href="#ax"/><use transform="matrix(0.05,0,0,0.05,24,0)" xlink:href="#aD"/><use transform="matrix(0.05,0,0,0.05,29,0)" xlink:href="#aD"/><use transform="matrix(0.05,0,0,0.05,34,0)" xlink:href="#aq"/><use transform="matrix(0.05,0,0,0.05,43,0)" xlink:href="#ar"/><use transform="matrix(0.05,0,0,0.05,48,0)" xlink:href="#aB"/><use transform="matrix(0.05,0,0,0.05,53.95,0)" xlink:href="#at"/><use transform="matrix(0.05,0,0,0.05,57.900000000000006,0)" xlink:href="#aA"/><use transform="matrix(0.05,0,0,0.05,67.9,0)" xlink:href="#aE"/></g><path fill="#333" d="M210-169c-67 3-38 105-44 169h-31v-121c0-29-5-50-35-48C34-165 62-65 56 0H25l-1-190h30c1 10-1 24 2 32 10-44 99-50 107 0 11-21 27-35 58-36 85-2 47 119 55 194h-31v-121c0-29-5-49-35-48" id="aH"/><path fill="#333" d="M115-194c53 0 69 39 70 98 0 66-23 100-70 100C84 3 66-7 56-30L54 0H23l1-261h32v101c10-23 28-34 59-34zm-8 174c40 0 45-34 45-75 0-40-5-75-45-74-42 0-51 32-51 76 0 43 10 73 51 73" id="aI"/><path fill="#333" d="M205 0l-28-72H64L36 0H1l101-248h38L239 0h-34zm-38-99l-47-123c-12 45-31 82-46 123h93" id="aJ"/><path fill="#333" d="M106-169C34-169 62-67 57 0H25v-261h32l-1 103c12-21 28-36 61-36 89 0 53 116 60 194h-32v-121c2-32-8-49-39-48" id="aK"/><path fill="#333" d="M33-261c38 41 65 92 65 168S71 34 33 75H2C39 34 66-17 66-93S39-220 2-261h31" id="aL"/><g id="g"><use transform="matrix(0.05,0,0,0.05,0,0)" xlink:href="#aA"/><use transform="matrix(0.05,0,0,0.05,10,0)" xlink:href="#aw"/><use transform="matrix(0.05,0,0,0.05,20,0)" xlink:href="#aH"/><use transform="matrix(0.05,0,0,0.05,34.95,0)" xlink:href="#aI"/><use transform="matrix(0.05,0,0,0.05,44.95,0)" xlink:href="#aB"/><use transform="matrix(0.05,0,0,0.05,50.900000000000006,0)" xlink:href="#az"/><use transform="matrix(0.05,0,0,0.05,60.900000000000006,0)" xlink:href="#aJ"/><use transform="matrix(0.05,0,0,0.05,72.9,0)" xlink:href="#aB"/><use transform="matrix(0.05,0,0,0.05,78.85000000000001,0)" xlink:href="#au"/><use transform="matrix(0.05,0,0,0.05,87.85000000000001,0)" xlink:href="#aK"/><use transform="matrix(0.05,0,0,0.05,97.85000000000001,0)" xlink:href="#at"/><use transform="matrix(0.05,0,0,0.05,101.80000000000001,0)" xlink:href="#av"/><use transform="matrix(0.05,0,0,0.05,110.80000000000001,0)" xlink:href="#aw"/><use transform="matrix(0.05,0,0,0.05,120.80000000000001,0)" xlink:href="#aL"/></g><path fill="#333" d="M67-125c0 53 21 87 73 88 37 1 54-22 65-47l45 17C233-25 199 4 140 4 58 4 20-42 15-125 8-235 124-281 211-232c18 10 29 29 36 50l-46 12c-8-25-30-41-62-41-52 0-71 34-72 86" id="aM"/><path fill="#333" d="M110-194c64 0 96 36 96 99 0 64-35 99-97 99-61 0-95-36-95-99 0-62 34-99 96-99zm-1 164c35 0 45-28 45-65 0-40-10-65-43-65-34 0-45 26-45 65 0 36 10 65 43 65" id="aN"/><path fill="#333" d="M135-194c87-1 58 113 63 194h-50c-7-57 23-157-34-157-59 0-34 97-39 157H25l-1-190h47c2 12-1 28 3 38 12-26 28-41 61-42" id="aO"/><path fill="#333" d="M115-3C79 11 28 4 28-45v-112H4v-33h27l15-45h31v45h36v33H77v99c-1 23 16 31 38 25v30" id="aP"/><path fill="#333" d="M135-150c-39-12-60 13-60 57V0H25l-1-190h47c2 13-1 29 3 40 6-28 27-53 61-41v41" id="aQ"/><path fill="#333" d="M25 0v-261h50V0H25" id="aR"/><g id="h"><use transform="matrix(0.05,0,0,0.05,0,0)" xlink:href="#aM"/><use transform="matrix(0.05,0,0,0.05,12.950000000000001,0)" xlink:href="#aN"/><use transform="matrix(0.05,0,0,0.05,23.900000000000002,0)" xlink:href="#aO"/><use transform="matrix(0.05,0,0,0.05,34.85,0)" xlink:href="#aP"/><use transform="matrix(0.05,0,0,0.05,40.800000000000004,0)" xlink:href="#aQ"/><use transform="matrix(0.05,0,0,0.05,47.800000000000004,0)" xlink:href="#aN"/><use transform="matrix(0.05,0,0,0.05,58.75,0)" xlink:href="#aR"/></g><path fill="#333" d="M16-82v-28h88v28H16" id="aS"/><path fill="#333" d="M101-234c-31-9-42 10-38 44h38v23H63V0H32v-167H5v-23h27c-7-52 17-82 69-68v24" id="aT"/><g id="i"><use transform="matrix(0.05,0,0,0.05,0,0)" xlink:href="#aS"/><use transform="matrix(0.05,0,0,0.05,5.95,0)" xlink:href="#at"/><use transform="matrix(0.05,0,0,0.05,9.9,0)" xlink:href="#aT"/><use transform="matrix(0.05,0,0,0.05,14.9,0)" xlink:href="#aq"/><use transform="matrix(0.05,0,0,0.05,23.9,0)" xlink:href="#ar"/><use transform="matrix(0.05,0,0,0.05,28.899999999999995,0)" xlink:href="#aB"/><use transform="matrix(0.05,0,0,0.05,34.85,0)" xlink:href="#az"/><use transform="matrix(0.05,0,0,0.05,44.85,0)" xlink:href="#as"/><use transform="matrix(0.05,0,0,0.05,54.85,0)" xlink:href="#aH"/></g><path fill="#333" d="M30 0v-248h187v28H63v79h144v27H63v87h162V0H30" id="aU"/><g id="j"><use transform="matrix(0.05,0,0,0.05,0,0)" xlink:href="#as"/><use transform="matrix(0.05,0,0,0.05,10,0)" xlink:href="#aB"/><use transform="matrix(0.05,0,0,0.05,15.949999999999998,0)" xlink:href="#au"/><use transform="matrix(0.05,0,0,0.05,24.95,0)" xlink:href="#aK"/><use transform="matrix(0.05,0,0,0.05,34.95,0)" xlink:href="#at"/><use transform="matrix(0.05,0,0,0.05,38.900000000000006,0)" xlink:href="#av"/><use transform="matrix(0.05,0,0,0.05,47.900000000000006,0)" xlink:href="#aw"/><use transform="matrix(0.05,0,0,0.05,57.900000000000006,0)" xlink:href="#aU"/><use transform="matrix(0.05,0,0,0.05,69.9,0)" xlink:href="#aA"/><use transform="matrix(0.05,0,0,0.05,79.9,0)" xlink:href="#ar"/><use transform="matrix(0.05,0,0,0.05,84.9,0)" xlink:href="#aB"/><use transform="matrix(0.05,0,0,0.05,90.85000000000001,0)" xlink:href="#as"/><use transform="matrix(0.05,0,0,0.05,100.85000000000001,0)" xlink:href="#ax"/><use transform="matrix(0.05,0,0,0.05,110.85000000000001,0)" xlink:href="#as"/></g><g id="k"><use transform="matrix(0.05,0,0,0.05,0,0)" xlink:href="#aS"/><use transform="matrix(0.05,0,0,0.05,5.95,0)" xlink:href="#aq"/><use transform="matrix(0.05,0,0,0.05,14.949999999999998,0)" xlink:href="#ar"/><use transform="matrix(0.05,0,0,0.05,19.95,0)" xlink:href="#aB"/><use transform="matrix(0.05,0,0,0.05,25.899999999999995,0)" xlink:href="#at"/><use transform="matrix(0.05,0,0,0.05,29.849999999999994,0)" xlink:href="#aA"/><use transform="matrix(0.05,0,0,0.05,39.849999999999994,0)" xlink:href="#aE"/></g><path fill="#333" d="M115-194c55 1 70 41 70 98S169 2 115 4C84 4 66-9 55-30l1 105H24l-1-265h31l2 30c10-21 28-34 59-34zm-8 174c40 0 45-34 45-75s-6-73-45-74c-42 0-51 32-51 76 0 43 10 73 51 73" id="aV"/><g id="l"><use transform="matrix(0.05,0,0,0.05,0,0)" xlink:href="#aV"/><use transform="matrix(0.05,0,0,0.05,10,0)" xlink:href="#as"/><use transform="matrix(0.05,0,0,0.05,20,0)" xlink:href="#aB"/><use transform="matrix(0.05,0,0,0.05,25.950000000000003,0)" xlink:href="#as"/><use transform="matrix(0.05,0,0,0.05,35.95,0)" xlink:href="#aH"/><use transform="matrix(0.05,0,0,0.05,50.900000000000006,0)" xlink:href="#az"/><use transform="matrix(0.05,0,0,0.05,60.900000000000006,0)" xlink:href="#ar"/><use transform="matrix(0.05,0,0,0.05,65.9,0)" xlink:href="#aB"/><use transform="matrix(0.05,0,0,0.05,71.85000000000001,0)" xlink:href="#aw"/></g><g id="m"><use transform="matrix(0.05,0,0,0.05,0,0)" xlink:href="#aS"/><use transform="matrix(0.05,0,0,0.05,5.95,0)" xlink:href="#aq"/><use transform="matrix(0.05,0,0,0.05,14.949999999999998,0)" xlink:href="#ar"/><use transform="matrix(0.05,0,0,0.05,19.95,0)" xlink:href="#aB"/><use transform="matrix(0.05,0,0,0.05,25.899999999999995,0)" xlink:href="#at"/><use transform="matrix(0.05,0,0,0.05,29.849999999999994,0)" xlink:href="#aA"/><use transform="matrix(0.05,0,0,0.05,39.849999999999994,0)" xlink:href="#aE"/><use transform="matrix(0.05,0,0,0.05,49.849999999999994,0)" xlink:href="#aq"/><use transform="matrix(0.05,0,0,0.05,58.849999999999994,0)" xlink:href="#ar"/><use transform="matrix(0.05,0,0,0.05,63.849999999999994,0)" xlink:href="#aB"/><use transform="matrix(0.05,0,0,0.05,69.8,0)" xlink:href="#az"/><use transform="matrix(0.05,0,0,0.05,79.8,0)" xlink:href="#as"/><use transform="matrix(0.05,0,0,0.05,89.8,0)" xlink:href="#aH"/></g><path fill="#333" d="M30-248c118-7 216 8 213 122C240-48 200 0 122 0H30v-248zM63-27c89 8 146-16 146-99s-60-101-146-95v194" id="aW"/><g id="n"><use transform="matrix(0.05,0,0,0.05,0,0)" xlink:href="#aq"/><use transform="matrix(0.05,0,0,0.05,9,0)" xlink:href="#ar"/><use transform="matrix(0.05,0,0,0.05,14,0)" xlink:href="#aB"/><use transform="matrix(0.05,0,0,0.05,19.95,0)" xlink:href="#aW"/><use transform="matrix(0.05,0,0,0.05,32.9,0)" xlink:href="#as"/><use transform="matrix(0.05,0,0,0.05,42.9,0)" xlink:href="#ar"/><use transform="matrix(0.05,0,0,0.05,47.9,0)" xlink:href="#aw"/><use transform="matrix(0.05,0,0,0.05,57.900000000000006,0)" xlink:href="#aq"/></g><g id="o"><use transform="matrix(0.05,0,0,0.05,0,0)" xlink:href="#aS"/><use transform="matrix(0.05,0,0,0.05,5.95,0)" xlink:href="#at"/><use transform="matrix(0.05,0,0,0.05,9.9,0)" xlink:href="#aA"/><use transform="matrix(0.05,0,0,0.05,19.9,0)" xlink:href="#ar"/></g><path fill="#333" d="M84 4C-5 8 30-112 23-190h32v120c0 31 7 50 39 49 72-2 45-101 50-169h31l1 190h-30c-1-10 1-25-2-33-11 22-28 36-60 37" id="aX"/><path fill="#333" d="M240 0l2-218c-23 76-54 145-80 218h-23L58-218 59 0H30v-248h44l77 211c21-75 51-140 76-211h43V0h-30" id="aY"/><g id="p"><use transform="matrix(0.05,0,0,0.05,0,0)" xlink:href="#aA"/><use transform="matrix(0.05,0,0,0.05,10,0)" xlink:href="#aX"/><use transform="matrix(0.05,0,0,0.05,20,0)" xlink:href="#aH"/><use transform="matrix(0.05,0,0,0.05,34.95,0)" xlink:href="#az"/><use transform="matrix(0.05,0,0,0.05,44.95,0)" xlink:href="#aB"/><use transform="matrix(0.05,0,0,0.05,50.900000000000006,0)" xlink:href="#aw"/><use transform="matrix(0.05,0,0,0.05,60.900000000000006,0)" xlink:href="#aY"/><use transform="matrix(0.05,0,0,0.05,75.85000000000001,0)" xlink:href="#az"/><use transform="matrix(0.05,0,0,0.05,85.85000000000001,0)" xlink:href="#ax"/><use transform="matrix(0.05,0,0,0.05,95.85000000000001,0)" xlink:href="#at"/><use transform="matrix(0.05,0,0,0.05,99.80000000000001,0)" xlink:href="#au"/><use transform="matrix(0.05,0,0,0.05,108.80000000000001,0)" xlink:href="#at"/><use transform="matrix(0.05,0,0,0.05,112.75,0)" xlink:href="#aw"/><use transform="matrix(0.05,0,0,0.05,122.75,0)" xlink:href="#aA"/><use transform="matrix(0.05,0,0,0.05,132.75,0)" xlink:href="#az"/><use transform="matrix(0.05,0,0,0.05,142.75,0)" xlink:href="#aq"/></g><path fill="#333" d="M18-100v-36l175-74v27L42-118l151 64v27" id="aZ"/><path fill="#333" d="M18-27v-27l151-64-151-65v-27l175 74v36" id="ba"/><g id="q"><use transform="matrix(0.05,0,0,0.05,0,0)" xlink:href="#aS"/><use transform="matrix(0.05,0,0,0.05,5.95,0)" xlink:href="#av"/><use transform="matrix(0.05,0,0,0.05,14.949999999999998,0)" xlink:href="#az"/><use transform="matrix(0.05,0,0,0.05,24.95,0)" xlink:href="#au"/><use transform="matrix(0.05,0,0,0.05,33.95,0)" xlink:href="#ar"/><use transform="matrix(0.05,0,0,0.05,38.95,0)" xlink:href="#aw"/><use transform="matrix(0.05,0,0,0.05,48.95,0)" xlink:href="#aB"/><use transform="matrix(0.05,0,0,0.05,54.900000000000006,0)" xlink:href="#aZ"/><use transform="matrix(0.05,0,0,0.05,65.4,0)" xlink:href="#at"/><use transform="matrix(0.05,0,0,0.05,69.35000000000001,0)" xlink:href="#aA"/><use transform="matrix(0.05,0,0,0.05,79.35000000000001,0)" xlink:href="#ar"/><use transform="matrix(0.05,0,0,0.05,84.35000000000001,0)" xlink:href="#ba"/></g><g id="r"><use transform="matrix(0.05,0,0,0.05,0,0)" xlink:href="#av"/><use transform="matrix(0.05,0,0,0.05,9,0)" xlink:href="#az"/><use transform="matrix(0.05,0,0,0.05,19,0)" xlink:href="#au"/><use transform="matrix(0.05,0,0,0.05,28,0)" xlink:href="#ar"/><use transform="matrix(0.05,0,0,0.05,33,0)" xlink:href="#aW"/><use transform="matrix(0.05,0,0,0.05,45.95,0)" xlink:href="#as"/><use transform="matrix(0.05,0,0,0.05,55.95,0)" xlink:href="#ar"/><use transform="matrix(0.05,0,0,0.05,60.95,0)" xlink:href="#aw"/><use transform="matrix(0.05,0,0,0.05,70.95,0)" xlink:href="#aq"/></g><g id="s"><use transform="matrix(0.05,0,0,0.05,0,0)" xlink:href="#aS"/><use transform="matrix(0.05,0,0,0.05,5.95,0)" xlink:href="#aU"/><use transform="matrix(0.05,0,0,0.05,17.95,0)" xlink:href="#aq"/><use transform="matrix(0.05,0,0,0.05,26.950000000000003,0)" xlink:href="#ar"/><use transform="matrix(0.05,0,0,0.05,31.950000000000003,0)" xlink:href="#as"/><use transform="matrix(0.05,0,0,0.05,41.95,0)" xlink:href="#ax"/><use transform="matrix(0.05,0,0,0.05,51.95,0)" xlink:href="#at"/><use transform="matrix(0.05,0,0,0.05,55.900000000000006,0)" xlink:href="#aq"/><use transform="matrix(0.05,0,0,0.05,64.9,0)" xlink:href="#ar"/><use transform="matrix(0.05,0,0,0.05,69.9,0)" xlink:href="#at"/><use transform="matrix(0.05,0,0,0.05,73.85000000000001,0)" xlink:href="#au"/><use transform="matrix(0.05,0,0,0.05,82.85000000000001,0)" xlink:href="#aw"/><use transform="matrix(0.05,0,0,0.05,92.85000000000001,0)" xlink:href="#aq"/></g><path fill="#333" d="M24-231v-30h32v30H24zM-9 49c24 4 33-6 33-30v-209h32V24c2 40-23 58-65 49V49" id="bb"/><g id="t"><use transform="matrix(0.05,0,0,0.05,0,0)" xlink:href="#aw"/><use transform="matrix(0.05,0,0,0.05,10,0)" xlink:href="#aI"/><use transform="matrix(0.05,0,0,0.05,20,0)" xlink:href="#bb"/><use transform="matrix(0.05,0,0,0.05,23.95,0)" xlink:href="#aU"/><use transform="matrix(0.05,0,0,0.05,35.95,0)" xlink:href="#aq"/><use transform="matrix(0.05,0,0,0.05,44.95,0)" xlink:href="#ar"/></g><path fill="#333" d="M212-179c-10-28-35-45-73-45-59 0-87 40-87 99 0 60 29 101 89 101 43 0 62-24 78-52l27 14C228-24 195 4 139 4 59 4 22-46 18-125c-6-104 99-153 187-111 19 9 31 26 39 46" id="bc"/><g id="u"><use transform="matrix(0.05,0,0,0.05,0,0)" xlink:href="#ap"/><use transform="matrix(0.05,0,0,0.05,10.5,0)" xlink:href="#bc"/><use transform="matrix(0.05,0,0,0.05,23.450000000000003,0)" xlink:href="#aw"/><use transform="matrix(0.05,0,0,0.05,33.45,0)" xlink:href="#aA"/><use transform="matrix(0.05,0,0,0.05,43.45,0)" xlink:href="#ar"/><use transform="matrix(0.05,0,0,0.05,48.45,0)" xlink:href="#aB"/><use transform="matrix(0.05,0,0,0.05,54.400000000000006,0)" xlink:href="#aw"/><use transform="matrix(0.05,0,0,0.05,64.4,0)" xlink:href="#ay"/><use transform="matrix(0.05,0,0,0.05,68.35000000000001,0)" xlink:href="#aC"/><use transform="matrix(0.05,0,0,0.05,74.30000000000001,0)" xlink:href="#aq"/><use transform="matrix(0.05,0,0,0.05,83.30000000000001,0)" xlink:href="#ar"/><use transform="matrix(0.05,0,0,0.05,88.30000000000001,0)" xlink:href="#ax"/><use transform="matrix(0.05,0,0,0.05,98.30000000000001,0)" xlink:href="#aD"/><use transform="matrix(0.05,0,0,0.05,103.30000000000001,0)" xlink:href="#aD"/><use transform="matrix(0.05,0,0,0.05,108.30000000000001,0)" xlink:href="#aq"/><use transform="matrix(0.05,0,0,0.05,117.30000000000001,0)" xlink:href="#ar"/><use transform="matrix(0.05,0,0,0.05,122.30000000000001,0)" xlink:href="#aB"/><use transform="matrix(0.05,0,0,0.05,128.25,0)" xlink:href="#at"/><use transform="matrix(0.05,0,0,0.05,132.2,0)" xlink:href="#aA"/><use transform="matrix(0.05,0,0,0.05,142.2,0)" xlink:href="#aE"/></g><g id="v"><use transform="matrix(0.05,0,0,0.05,0,0)" xlink:href="#aA"/><use transform="matrix(0.05,0,0,0.05,10,0)" xlink:href="#aw"/><use transform="matrix(0.05,0,0,0.05,20,0)" xlink:href="#aH"/><use transform="matrix(0.05,0,0,0.05,34.95,0)" xlink:href="#aI"/><use transform="matrix(0.05,0,0,0.05,44.95,0)" xlink:href="#aB"/><use transform="matrix(0.05,0,0,0.05,50.900000000000006,0)" xlink:href="#az"/><use transform="matrix(0.05,0,0,0.05,60.900000000000006,0)" xlink:href="#aL"/></g><path fill="#333" d="M16-127c37-31 93-2 135 6 18-1 32-8 43-16v26c-50 42-130-35-178 9v-25" id="bd"/><g id="w"><use transform="matrix(0.05,0,0,0.05,0,0)" xlink:href="#ap"/><use transform="matrix(0.05,0,0,0.05,10.5,0)" xlink:href="#bd"/><use transform="matrix(0.05,0,0,0.05,21,0)" xlink:href="#bc"/><use transform="matrix(0.05,0,0,0.05,33.95,0)" xlink:href="#aw"/><use transform="matrix(0.05,0,0,0.05,43.95,0)" xlink:href="#aA"/><use transform="matrix(0.05,0,0,0.05,53.95,0)" xlink:href="#ar"/><use transform="matrix(0.05,0,0,0.05,58.95,0)" xlink:href="#aB"/><use transform="matrix(0.05,0,0,0.05,64.9,0)" xlink:href="#aw"/><use transform="matrix(0.05,0,0,0.05,74.9,0)" xlink:href="#ay"/><use transform="matrix(0.05,0,0,0.05,78.85000000000001,0)" xlink:href="#aC"/><use transform="matrix(0.05,0,0,0.05,84.80000000000001,0)" xlink:href="#aL"/></g><g id="x"><use transform="matrix(0.05,0,0,0.05,0,0)" xlink:href="#ap"/><use transform="matrix(0.05,0,0,0.05,10.5,0)" xlink:href="#av"/><use transform="matrix(0.05,0,0,0.05,19.5,0)" xlink:href="#aw"/><use transform="matrix(0.05,0,0,0.05,29.5,0)" xlink:href="#at"/><use transform="matrix(0.05,0,0,0.05,33.45,0)" xlink:href="#ax"/></g><g id="y"><use transform="matrix(0.05,0,0,0.05,0,0)" xlink:href="#aq"/><use transform="matrix(0.05,0,0,0.05,9,0)" xlink:href="#az"/><use transform="matrix(0.05,0,0,0.05,19,0)" xlink:href="#ar"/><use transform="matrix(0.05,0,0,0.05,24,0)" xlink:href="#aY"/><use transform="matrix(0.05,0,0,0.05,38.95,0)" xlink:href="#az"/><use transform="matrix(0.05,0,0,0.05,48.95,0)" xlink:href="#ax"/><use transform="matrix(0.05,0,0,0.05,58.95,0)" xlink:href="#at"/><use transform="matrix(0.05,0,0,0.05,62.900000000000006,0)" xlink:href="#au"/><use transform="matrix(0.05,0,0,0.05,71.9,0)" xlink:href="#at"/><use transform="matrix(0.05,0,0,0.05,75.85000000000001,0)" xlink:href="#aw"/><use transform="matrix(0.05,0,0,0.05,85.85000000000001,0)" xlink:href="#aA"/><use transform="matrix(0.05,0,0,0.05,95.85000000000001,0)" xlink:href="#az"/><use transform="matrix(0.05,0,0,0.05,105.85000000000001,0)" xlink:href="#aq"/><use transform="matrix(0.05,0,0,0.05,114.85000000000001,0)" xlink:href="#aC"/><use transform="matrix(0.05,0,0,0.05,120.80000000000001,0)" xlink:href="#aL"/></g><path fill="#333" d="M30-248c87 1 191-15 191 75 0 78-77 80-158 76V0H30v-248zm33 125c57 0 124 11 124-50 0-59-68-47-124-48v98" id="be"/><g id="z"><use transform="matrix(0.05,0,0,0.05,0,0)" xlink:href="#aq"/><use transform="matrix(0.05,0,0,0.05,9,0)" xlink:href="#az"/><use transform="matrix(0.05,0,0,0.05,19,0)" xlink:href="#ar"/><use transform="matrix(0.05,0,0,0.05,24,0)" xlink:href="#be"/><use transform="matrix(0.05,0,0,0.05,36,0)" xlink:href="#as"/><use transform="matrix(0.05,0,0,0.05,46,0)" xlink:href="#aB"/><use transform="matrix(0.05,0,0,0.05,51.95,0)" xlink:href="#as"/><use transform="matrix(0.05,0,0,0.05,61.95,0)" xlink:href="#aH"/><use transform="matrix(0.05,0,0,0.05,76.9,0)" xlink:href="#az"/><use transform="matrix(0.05,0,0,0.05,86.9,0)" xlink:href="#ar"/><use transform="matrix(0.05,0,0,0.05,91.9,0)" xlink:href="#aB"/><use transform="matrix(0.05,0,0,0.05,97.85000000000001,0)" xlink:href="#aw"/><use transform="matrix(0.05,0,0,0.05,107.85000000000001,0)" xlink:href="#aC"/><use transform="matrix(0.05,0,0,0.05,113.80000000000001,0)" xlink:href="#aL"/></g><path fill="#333" d="M185-189c-5-48-123-54-124 2 14 75 158 14 163 119 3 78-121 87-175 55-17-10-28-26-33-46l33-7c5 56 141 63 141-1 0-78-155-14-162-118-5-82 145-84 179-34 5 7 8 16 11 25" id="bf"/><g id="A"><use transform="matrix(0.05,0,0,0.05,0,0)" xlink:href="#aq"/><use transform="matrix(0.05,0,0,0.05,9,0)" xlink:href="#az"/><use transform="matrix(0.05,0,0,0.05,19,0)" xlink:href="#ar"/><use transform="matrix(0.05,0,0,0.05,24,0)" xlink:href="#bf"/><use transform="matrix(0.05,0,0,0.05,36,0)" xlink:href="#ar"/><use transform="matrix(0.05,0,0,0.05,41,0)" xlink:href="#aB"/><use transform="matrix(0.05,0,0,0.05,46.95,0)" xlink:href="#aW"/><use transform="matrix(0.05,0,0,0.05,59.900000000000006,0)" xlink:href="#as"/><use transform="matrix(0.05,0,0,0.05,69.9,0)" xlink:href="#ar"/><use transform="matrix(0.05,0,0,0.05,74.9,0)" xlink:href="#aw"/><use transform="matrix(0.05,0,0,0.05,84.9,0)" xlink:href="#aq"/><use transform="matrix(0.05,0,0,0.05,93.9,0)" xlink:href="#aC"/><use transform="matrix(0.05,0,0,0.05,99.85000000000001,0)" xlink:href="#aL"/></g><path fill="#333" d="M137 0h-34L2-248h35l83 218 83-218h36" id="bg"/><g id="B"><use transform="matrix(0.05,0,0,0.05,0,0)" xlink:href="#ar"/><use transform="matrix(0.05,0,0,0.05,5,0)" xlink:href="#aw"/><use transform="matrix(0.05,0,0,0.05,15,0)" xlink:href="#bg"/><use transform="matrix(0.05,0,0,0.05,26,0)" xlink:href="#az"/><use transform="matrix(0.05,0,0,0.05,36,0)" xlink:href="#au"/><use transform="matrix(0.05,0,0,0.05,45,0)" xlink:href="#ar"/><use transform="matrix(0.05,0,0,0.05,50,0)" xlink:href="#aw"/><use transform="matrix(0.05,0,0,0.05,60,0)" xlink:href="#aB"/><use transform="matrix(0.05,0,0,0.05,65.95,0)" xlink:href="#aC"/><use transform="matrix(0.05,0,0,0.05,71.9,0)" xlink:href="#aL"/></g><g id="C"><use transform="matrix(0.05,0,0,0.05,0,0)" xlink:href="#au"/><use transform="matrix(0.05,0,0,0.05,9,0)" xlink:href="#as"/><use transform="matrix(0.05,0,0,0.05,19,0)" xlink:href="#ay"/><use transform="matrix(0.05,0,0,0.05,22.95,0)" xlink:href="#au"/><use transform="matrix(0.05,0,0,0.05,31.950000000000003,0)" xlink:href="#aX"/><use transform="matrix(0.05,0,0,0.05,41.95,0)" xlink:href="#ay"/><use transform="matrix(0.05,0,0,0.05,45.900000000000006,0)" xlink:href="#as"/><use transform="matrix(0.05,0,0,0.05,55.900000000000006,0)" xlink:href="#aB"/><use transform="matrix(0.05,0,0,0.05,61.85,0)" xlink:href="#be"/><use transform="matrix(0.05,0,0,0.05,73.85000000000001,0)" xlink:href="#as"/><use transform="matrix(0.05,0,0,0.05,83.85000000000001,0)" xlink:href="#aB"/><use transform="matrix(0.05,0,0,0.05,89.80000000000001,0)" xlink:href="#as"/><use transform="matrix(0.05,0,0,0.05,99.80000000000001,0)" xlink:href="#aH"/><use transform="matrix(0.05,0,0,0.05,114.75,0)" xlink:href="#az"/><use transform="matrix(0.05,0,0,0.05,124.75,0)" xlink:href="#ar"/><use transform="matrix(0.05,0,0,0.05,129.75,0)" xlink:href="#aB"/><use transform="matrix(0.05,0,0,0.05,135.7,0)" xlink:href="#aw"/><use transform="matrix(0.05,0,0,0.05,145.7,0)" xlink:href="#aC"/><use transform="matrix(0.05,0,0,0.05,151.64999999999998,0)" xlink:href="#aL"/></g><g id="D"><use transform="matrix(0.05,0,0,0.05,0,0)" xlink:href="#ay"/><use transform="matrix(0.05,0,0,0.05,3.95,0)" xlink:href="#ay"/><use transform="matrix(0.05,0,0,0.05,7.9,0)" xlink:href="#as"/><use transform="matrix(0.05,0,0,0.05,17.9,0)" xlink:href="#aH"/><use transform="matrix(0.05,0,0,0.05,32.85,0)" xlink:href="#as"/><use transform="matrix(0.05,0,0,0.05,42.85,0)" xlink:href="#aB"/><use transform="matrix(0.05,0,0,0.05,48.800000000000004,0)" xlink:href="#be"/><use transform="matrix(0.05,0,0,0.05,60.800000000000004,0)" xlink:href="#az"/><use transform="matrix(0.05,0,0,0.05,70.80000000000001,0)" xlink:href="#aB"/><use transform="matrix(0.05,0,0,0.05,76.75000000000001,0)" xlink:href="#aq"/><use transform="matrix(0.05,0,0,0.05,85.75000000000001,0)" xlink:href="#at"/><use transform="matrix(0.05,0,0,0.05,89.70000000000002,0)" xlink:href="#aq"/><use transform="matrix(0.05,0,0,0.05,98.70000000000002,0)" xlink:href="#ar"/><use transform="matrix(0.05,0,0,0.05,103.7,0)" xlink:href="#az"/><use transform="matrix(0.05,0,0,0.05,113.7,0)" xlink:href="#aA"/><use transform="matrix(0.05,0,0,0.05,123.7,0)" xlink:href="#au"/><use transform="matrix(0.05,0,0,0.05,132.70000000000002,0)" xlink:href="#at"/><use transform="matrix(0.05,0,0,0.05,136.65,0)" xlink:href="#as"/><use transform="matrix(0.05,0,0,0.05,146.65,0)" xlink:href="#aC"/><use transform="matrix(0.05,0,0,0.05,152.6,0)" xlink:href="#aq"/><use transform="matrix(0.05,0,0,0.05,161.6,0)" xlink:href="#ar"/><use transform="matrix(0.05,0,0,0.05,166.6,0)" xlink:href="#ax"/><use transform="matrix(0.05,0,0,0.05,176.6,0)" xlink:href="#aD"/><use transform="matrix(0.05,0,0,0.05,181.6,0)" xlink:href="#aD"/><use transform="matrix(0.05,0,0,0.05,186.6,0)" xlink:href="#aq"/><use transform="matrix(0.05,0,0,0.05,195.6,0)" xlink:href="#ar"/><use transform="matrix(0.05,0,0,0.05,200.6,0)" xlink:href="#aB"/><use transform="matrix(0.05,0,0,0.05,206.54999999999995,0)" xlink:href="#at"/><use transform="matrix(0.05,0,0,0.05,210.49999999999997,0)" xlink:href="#aA"/><use transform="matrix(0.05,0,0,0.05,220.49999999999997,0)" xlink:href="#aE"/></g><g id="E"><use transform="matrix(0.05,0,0,0.05,0,0)" xlink:href="#aB"/><use transform="matrix(0.05,0,0,0.05,5.95,0)" xlink:href="#az"/><use transform="matrix(0.05,0,0,0.05,15.949999999999998,0)" xlink:href="#aq"/><use transform="matrix(0.05,0,0,0.05,24.95,0)" xlink:href="#az"/><use transform="matrix(0.05,0,0,0.05,34.95,0)" xlink:href="#ar"/><use transform="matrix(0.05,0,0,0.05,39.95,0)" xlink:href="#aC"/><use transform="matrix(0.05,0,0,0.05,45.900000000000006,0)" xlink:href="#aL"/></g><g id="F"><use transform="matrix(0.05,0,0,0.05,0,0)" xlink:href="#ap"/><use transform="matrix(0.05,0,0,0.05,10.5,0)" xlink:href="#at"/><use transform="matrix(0.05,0,0,0.05,14.449999999999998,0)" xlink:href="#aA"/><use transform="matrix(0.05,0,0,0.05,24.45,0)" xlink:href="#ar"/></g><g id="G"><use transform="matrix(0.05,0,0,0.05,0,0)" xlink:href="#aE"/><use transform="matrix(0.05,0,0,0.05,10,0)" xlink:href="#az"/><use transform="matrix(0.05,0,0,0.05,20,0)" xlink:href="#ar"/><use transform="matrix(0.05,0,0,0.05,25,0)" xlink:href="#aY"/><use transform="matrix(0.05,0,0,0.05,39.95,0)" xlink:href="#az"/><use transform="matrix(0.05,0,0,0.05,49.95,0)" xlink:href="#ax"/><use transform="matrix(0.05,0,0,0.05,59.95,0)" xlink:href="#at"/><use transform="matrix(0.05,0,0,0.05,63.900000000000006,0)" xlink:href="#au"/><use transform="matrix(0.05,0,0,0.05,72.9,0)" xlink:href="#at"/><use transform="matrix(0.05,0,0,0.05,76.85000000000001,0)" xlink:href="#aw"/><use transform="matrix(0.05,0,0,0.05,86.85000000000001,0)" xlink:href="#aA"/><use transform="matrix(0.05,0,0,0.05,96.85000000000001,0)" xlink:href="#az"/><use transform="matrix(0.05,0,0,0.05,106.85000000000001,0)" xlink:href="#aq"/><use transform="matrix(0.05,0,0,0.05,115.85000000000001,0)" xlink:href="#aC"/><use transform="matrix(0.05,0,0,0.05,121.80000000000001,0)" xlink:href="#aL"/></g><path fill="#333" d="M156-25L96-89v-11l60-65h29v5l-59 66 60 64v5h-30zm-82 0L15-89v-11l59-65h29v5L44-94l59 64v5H74" id="bh"/><path fill="#333" d="M126-25H97v-5l59-64-59-66v-5h29l60 65v11zm-82 0H15v-5l59-64-59-66v-5h29l59 65v11" id="bi"/><g id="H"><use transform="matrix(0.04320987654320988,0,0,0.04320987654320988,0,0)" xlink:href="#bh"/><use transform="matrix(0.04320987654320988,0,0,0.04320987654320988,8.641975308641976,0)" xlink:href="#aX"/><use transform="matrix(0.04320987654320988,0,0,0.04320987654320988,17.283950617283953,0)" xlink:href="#aq"/><use transform="matrix(0.04320987654320988,0,0,0.04320987654320988,25.06172839506173,0)" xlink:href="#as"/><use transform="matrix(0.04320987654320988,0,0,0.04320987654320988,33.70370370370371,0)" xlink:href="#bi"/></g><path d="M24 0v-248h52v208h133V0H24" id="bj"/><g id="I"><use transform="matrix(0.05,0,0,0.05,0,0)" xlink:href="#bj"/><use transform="matrix(0.05,0,0,0.05,10.950000000000001,0)" xlink:href="#ah"/><use transform="matrix(0.05,0,0,0.05,20.950000000000003,0)" xlink:href="#ah"/><use transform="matrix(0.05,0,0,0.05,30.950000000000003,0)" xlink:href="#ai"/></g><g id="J"><use transform="matrix(0.05,0,0,0.05,0,0)" xlink:href="#ay"/><use transform="matrix(0.05,0,0,0.05,3.95,0)" xlink:href="#az"/><use transform="matrix(0.05,0,0,0.05,13.949999999999998,0)" xlink:href="#az"/><use transform="matrix(0.05,0,0,0.05,23.95,0)" xlink:href="#aB"/><use transform="matrix(0.05,0,0,0.05,29.899999999999995,0)" xlink:href="#bg"/><use transform="matrix(0.05,0,0,0.05,40.55,0)" xlink:href="#as"/><use transform="matrix(0.05,0,0,0.05,50.55,0)" xlink:href="#ay"/><use transform="matrix(0.05,0,0,0.05,54.5,0)" xlink:href="#aw"/><use transform="matrix(0.05,0,0,0.05,64.5,0)" xlink:href="#aB"/><use transform="matrix(0.05,0,0,0.05,70.45,0)" xlink:href="#aC"/><use transform="matrix(0.05,0,0,0.05,76.4,0)" xlink:href="#aq"/><use transform="matrix(0.05,0,0,0.05,85.4,0)" xlink:href="#ar"/><use transform="matrix(0.05,0,0,0.05,90.4,0)" xlink:href="#ax"/><use transform="matrix(0.05,0,0,0.05,100.4,0)" xlink:href="#aD"/><use transform="matrix(0.05,0,0,0.05,105.4,0)" xlink:href="#aD"/><use transform="matrix(0.05,0,0,0.05,110.4,0)" xlink:href="#at"/><use transform="matrix(0.05,0,0,0.05,114.35000000000001,0)" xlink:href="#aT"/><use transform="matrix(0.05,0,0,0.05,119.35000000000001,0)" xlink:href="#aq"/><use transform="matrix(0.05,0,0,0.05,128.35000000000002,0)" xlink:href="#ar"/><use transform="matrix(0.05,0,0,0.05,133.35000000000002,0)" xlink:href="#aB"/><use transform="matrix(0.05,0,0,0.05,139.3,0)" xlink:href="#az"/><use transform="matrix(0.05,0,0,0.05,149.3,0)" xlink:href="#as"/><use transform="matrix(0.05,0,0,0.05,159.3,0)" xlink:href="#aH"/></g><path fill="#333" d="M234-2c-28 10-62 0-77-18C117 19 8 12 13-65c3-43 29-61 60-76-25-40-17-114 47-108 35 3 59 15 59 50 0 44-40 53-71 69 14 26 32 50 51 72 14-21 24-43 30-72l26 8c-9 33-21 57-38 82 13 13 33 22 57 15v23zM97-151c25-10 52-18 56-48-1-18-13-29-33-29-42 0-39 50-23 77zM42-66c-3 51 71 58 98 28-20-24-41-51-56-80-23 10-40 24-42 52" id="bk"/><g id="K"><use transform="matrix(0.05,0,0,0.05,0,0)" xlink:href="#bk"/><use transform="matrix(0.05,0,0,0.05,12,0)" xlink:href="#az"/><use transform="matrix(0.05,0,0,0.05,22,0)" xlink:href="#aA"/><use transform="matrix(0.05,0,0,0.05,32,0)" xlink:href="#ar"/><use transform="matrix(0.05,0,0,0.05,37,0)" xlink:href="#aB"/><use transform="matrix(0.05,0,0,0.05,42.95,0)" xlink:href="#as"/><use transform="matrix(0.05,0,0,0.05,52.95,0)" xlink:href="#ax"/><use transform="matrix(0.05,0,0,0.05,62.95,0)" xlink:href="#as"/><use transform="matrix(0.05,0,0,0.05,72.95,0)" xlink:href="#aG"/></g><g id="L"><use transform="matrix(0.05,0,0,0.05,0,0)" xlink:href="#at"/><use transform="matrix(0.05,0,0,0.05,3.95,0)" xlink:href="#aA"/><use transform="matrix(0.05,0,0,0.05,13.949999999999998,0)" xlink:href="#ar"/></g><path fill="#333" d="M33 0v-248h34V0H33" id="bl"/><g id="M"><use transform="matrix(0.05,0,0,0.05,0,0)" xlink:href="#bk"/><use transform="matrix(0.05,0,0,0.05,12,0)" xlink:href="#at"/><use transform="matrix(0.05,0,0,0.05,15.949999999999998,0)" xlink:href="#aA"/><use transform="matrix(0.05,0,0,0.05,25.950000000000003,0)" xlink:href="#ar"/><use transform="matrix(0.05,0,0,0.05,30.950000000000003,0)" xlink:href="#bl"/><use transform="matrix(0.05,0,0,0.05,35.95,0)" xlink:href="#aA"/><use transform="matrix(0.05,0,0,0.05,45.95,0)" xlink:href="#aV"/><use transform="matrix(0.05,0,0,0.05,55.95,0)" xlink:href="#aX"/><use transform="matrix(0.05,0,0,0.05,65.95,0)" xlink:href="#ar"/><use transform="matrix(0.05,0,0,0.05,70.95,0)" xlink:href="#aL"/></g><g id="N"><use transform="matrix(0.05,0,0,0.05,0,0)" xlink:href="#bk"/><use transform="matrix(0.05,0,0,0.05,12,0)" xlink:href="#aq"/><use transform="matrix(0.05,0,0,0.05,21,0)" xlink:href="#ar"/><use transform="matrix(0.05,0,0,0.05,26,0)" xlink:href="#aB"/><use transform="matrix(0.05,0,0,0.05,31.950000000000003,0)" xlink:href="#bl"/><use transform="matrix(0.05,0,0,0.05,36.95,0)" xlink:href="#aA"/><use transform="matrix(0.05,0,0,0.05,46.95,0)" xlink:href="#aV"/><use transform="matrix(0.05,0,0,0.05,56.95,0)" xlink:href="#aX"/><use transform="matrix(0.05,0,0,0.05,66.95,0)" xlink:href="#ar"/><use transform="matrix(0.05,0,0,0.05,71.95,0)" xlink:href="#aL"/></g><path fill="#333" d="M30 0v-248h33v221h125V0H30" id="bm"/><g id="O"><use transform="matrix(0.05,0,0,0.05,0,0)" xlink:href="#ay"/><use transform="matrix(0.05,0,0,0.05,3.95,0)" xlink:href="#az"/><use transform="matrix(0.05,0,0,0.05,13.949999999999998,0)" xlink:href="#az"/><use transform="matrix(0.05,0,0,0.05,23.95,0)" xlink:href="#aB"/><use transform="matrix(0.05,0,0,0.05,29.899999999999995,0)" xlink:href="#bm"/><use transform="matrix(0.05,0,0,0.05,39.9,0)" xlink:href="#at"/><use transform="matrix(0.05,0,0,0.05,43.85,0)" xlink:href="#aA"/><use transform="matrix(0.05,0,0,0.05,53.85,0)" xlink:href="#az"/><use transform="matrix(0.05,0,0,0.05,63.85,0)" xlink:href="#as"/><use transform="matrix(0.05,0,0,0.05,73.85,0)" xlink:href="#aC"/><use transform="matrix(0.05,0,0,0.05,79.8,0)" xlink:href="#aq"/><use transform="matrix(0.05,0,0,0.05,88.8,0)" xlink:href="#ar"/><use transform="matrix(0.05,0,0,0.05,93.8,0)" xlink:href="#ax"/><use transform="matrix(0.05,0,0,0.05,103.80000000000001,0)" xlink:href="#aD"/><use transform="matrix(0.05,0,0,0.05,108.80000000000001,0)" xlink:href="#aD"/><use transform="matrix(0.05,0,0,0.05,113.80000000000001,0)" xlink:href="#at"/><use transform="matrix(0.05,0,0,0.05,117.75,0)" xlink:href="#aT"/><use transform="matrix(0.05,0,0,0.05,122.75,0)" xlink:href="#aq"/><use transform="matrix(0.05,0,0,0.05,131.75,0)" xlink:href="#ar"/><use transform="matrix(0.05,0,0,0.05,136.75,0)" xlink:href="#aB"/><use transform="matrix(0.05,0,0,0.05,142.7,0)" xlink:href="#az"/><use transform="matrix(0.05,0,0,0.05,152.7,0)" xlink:href="#as"/><use transform="matrix(0.05,0,0,0.05,162.7,0)" xlink:href="#aH"/></g><g id="P"><use transform="matrix(0.05,0,0,0.05,0,0)" xlink:href="#bk"/><use transform="matrix(0.05,0,0,0.05,12,0)" xlink:href="#aq"/><use transform="matrix(0.05,0,0,0.05,21,0)" xlink:href="#ar"/><use transform="matrix(0.05,0,0,0.05,26,0)" xlink:href="#aB"/><use transform="matrix(0.05,0,0,0.05,31.950000000000003,0)" xlink:href="#bl"/><use transform="matrix(0.05,0,0,0.05,36.95,0)" xlink:href="#aA"/><use transform="matrix(0.05,0,0,0.05,46.95,0)" xlink:href="#aV"/><use transform="matrix(0.05,0,0,0.05,56.95,0)" xlink:href="#aX"/><use transform="matrix(0.05,0,0,0.05,66.95,0)" xlink:href="#ar"/><use transform="matrix(0.05,0,0,0.05,71.95,0)" xlink:href="#aL"/></g><path fill="#333" d="M24 0v-248h195v40H76v63h132v40H76v65h150V0H24" id="bn"/><path fill="#333" d="M137-138c1-29-70-34-71-4 15 46 118 7 119 86 1 83-164 76-172 9l43-7c4 19 20 25 44 25 33 8 57-30 24-41C81-84 22-81 20-136c-2-80 154-74 161-7" id="bo"/><path fill="#333" d="M133-34C117-15 103 5 69 4 32 3 11-16 11-54c-1-60 55-63 116-61 1-26-3-47-28-47-18 1-26 9-28 27l-52-2c7-38 36-58 82-57s74 22 75 68l1 82c-1 14 12 18 25 15v27c-30 8-71 5-69-32zm-48 3c29 0 43-24 42-57-32 0-66-3-65 30 0 17 8 27 23 27" id="bp"/><path fill="#333" d="M88-194c31-1 46 15 58 34l-1-101h50l1 261h-48c-2-10 0-23-3-31C134-8 116 4 84 4 32 4 16-41 15-95c0-56 19-97 73-99zm17 164c33 0 40-30 41-66 1-37-9-64-41-64s-38 30-39 65c0 43 13 65 39 65" id="bq"/><path fill="#333" d="M25-224v-37h50v37H25zM25 0v-190h50V0H25" id="br"/><path fill="#333" d="M190-63c-7 42-38 67-86 67-59 0-84-38-90-98-12-110 154-137 174-36l-49 2c-2-19-15-32-35-32-30 0-35 28-38 64-6 74 65 87 74 30" id="bs"/><g id="Q"><use transform="matrix(0.05,0,0,0.05,0,0)" xlink:href="#bn"/><use transform="matrix(0.05,0,0,0.05,12,0)" xlink:href="#bo"/><use transform="matrix(0.05,0,0,0.05,22,0)" xlink:href="#aP"/><use transform="matrix(0.05,0,0,0.05,27.950000000000003,0)" xlink:href="#bp"/><use transform="matrix(0.05,0,0,0.05,37.95,0)" xlink:href="#bq"/><use transform="matrix(0.05,0,0,0.05,48.900000000000006,0)" xlink:href="#br"/><use transform="matrix(0.05,0,0,0.05,53.900000000000006,0)" xlink:href="#bo"/><use transform="matrix(0.05,0,0,0.05,63.900000000000006,0)" xlink:href="#aP"/><use transform="matrix(0.05,0,0,0.05,69.85000000000001,0)" xlink:href="#br"/><use transform="matrix(0.05,0,0,0.05,74.85000000000001,0)" xlink:href="#bs"/><use transform="matrix(0.05,0,0,0.05,84.85000000000001,0)" xlink:href="#aN"/><use transform="matrix(0.05,0,0,0.05,95.80000000000001,0)" xlink:href="#bo"/></g><g id="R"><use transform="matrix(0.05,0,0,0.05,0,0)" xlink:href="#aS"/><use transform="matrix(0.05,0,0,0.05,5.95,0)" xlink:href="#aw"/><use transform="matrix(0.05,0,0,0.05,15.949999999999998,0)" xlink:href="#aq"/><use transform="matrix(0.05,0,0,0.05,24.95,0)" xlink:href="#ar"/><use transform="matrix(0.05,0,0,0.05,29.950000000000003,0)" xlink:href="#aB"/><use transform="matrix(0.05,0,0,0.05,35.9,0)" xlink:href="#at"/><use transform="matrix(0.05,0,0,0.05,39.85,0)" xlink:href="#aA"/><use transform="matrix(0.05,0,0,0.05,49.85,0)" xlink:href="#aE"/><use transform="matrix(0.05,0,0,0.05,59.85,0)" xlink:href="#aq"/><use transform="matrix(0.05,0,0,0.05,68.85,0)" xlink:href="#ar"/><use transform="matrix(0.05,0,0,0.05,73.85,0)" xlink:href="#aB"/><use transform="matrix(0.05,0,0,0.05,79.8,0)" xlink:href="#az"/><use transform="matrix(0.05,0,0,0.05,89.8,0)" xlink:href="#as"/><use transform="matrix(0.05,0,0,0.05,99.8,0)" xlink:href="#aH"/></g><g id="S"><use transform="matrix(0.05,0,0,0.05,0,0)" xlink:href="#aB"/><use transform="matrix(0.05,0,0,0.05,5.95,0)" xlink:href="#az"/><use transform="matrix(0.05,0,0,0.05,15.949999999999998,0)" xlink:href="#aq"/><use transform="matrix(0.05,0,0,0.05,24.95,0)" xlink:href="#aX"/><use transform="matrix(0.05,0,0,0.05,34.95,0)" xlink:href="#ay"/><use transform="matrix(0.05,0,0,0.05,38.900000000000006,0)" xlink:href="#ar"/><use transform="matrix(0.05,0,0,0.05,43.900000000000006,0)" xlink:href="#as"/><use transform="matrix(0.05,0,0,0.05,53.900000000000006,0)" xlink:href="#ax"/><use transform="matrix(0.05,0,0,0.05,63.900000000000006,0)" xlink:href="#aw"/></g><path fill="#333" d="M140-251c81 0 123 46 123 126C263-46 219 4 140 4 59 4 17-45 17-125s42-126 123-126zm0 227c63 0 89-41 89-101s-29-99-89-99c-61 0-89 39-89 99S79-25 140-24" id="bt"/><g id="T"><use transform="matrix(0.05,0,0,0.05,0,0)" xlink:href="#bt"/><use transform="matrix(0.05,0,0,0.05,14,0)" xlink:href="#aJ"/><use transform="matrix(0.05,0,0,0.05,26,0)" xlink:href="#aC"/><use transform="matrix(0.05,0,0,0.05,31.950000000000003,0)" xlink:href="#aq"/><use transform="matrix(0.05,0,0,0.05,40.95,0)" xlink:href="#ar"/><use transform="matrix(0.05,0,0,0.05,45.95,0)" xlink:href="#ax"/><use transform="matrix(0.05,0,0,0.05,55.95,0)" xlink:href="#aD"/><use transform="matrix(0.05,0,0,0.05,60.95,0)" xlink:href="#aD"/><use transform="matrix(0.05,0,0,0.05,65.95,0)" xlink:href="#av"/><use transform="matrix(0.05,0,0,0.05,74.95,0)" xlink:href="#az"/><use transform="matrix(0.05,0,0,0.05,84.95,0)" xlink:href="#au"/><use transform="matrix(0.05,0,0,0.05,93.95,0)" xlink:href="#ar"/><use transform="matrix(0.05,0,0,0.05,98.95,0)" xlink:href="#aw"/><use transform="matrix(0.05,0,0,0.05,108.95,0)" xlink:href="#aB"/><use transform="matrix(0.05,0,0,0.05,114.9,0)" xlink:href="#aZ"/><use transform="matrix(0.05,0,0,0.05,125.4,0)" xlink:href="#at"/><use transform="matrix(0.05,0,0,0.05,129.35,0)" xlink:href="#aA"/><use transform="matrix(0.05,0,0,0.05,139.35,0)" xlink:href="#ar"/><use transform="matrix(0.05,0,0,0.05,144.35,0)" xlink:href="#ba"/></g><g id="U"><use transform="matrix(0.05,0,0,0.05,0,0)" xlink:href="#bk"/><use transform="matrix(0.05,0,0,0.05,12,0)" xlink:href="#av"/><use transform="matrix(0.05,0,0,0.05,21,0)" xlink:href="#az"/><use transform="matrix(0.05,0,0,0.05,31,0)" xlink:href="#au"/><use transform="matrix(0.05,0,0,0.05,40,0)" xlink:href="#ar"/><use transform="matrix(0.05,0,0,0.05,45,0)" xlink:href="#aL"/></g><g id="V"><use transform="matrix(0.05,0,0,0.05,0,0)" xlink:href="#bt"/><use transform="matrix(0.05,0,0,0.05,14,0)" xlink:href="#aW"/><use transform="matrix(0.05,0,0,0.05,26.950000000000003,0)" xlink:href="#aC"/><use transform="matrix(0.05,0,0,0.05,32.900000000000006,0)" xlink:href="#aq"/><use transform="matrix(0.05,0,0,0.05,41.900000000000006,0)" xlink:href="#ar"/><use transform="matrix(0.05,0,0,0.05,46.900000000000006,0)" xlink:href="#ax"/><use transform="matrix(0.05,0,0,0.05,56.900000000000006,0)" xlink:href="#aD"/><use transform="matrix(0.05,0,0,0.05,61.900000000000006,0)" xlink:href="#aD"/><use transform="matrix(0.05,0,0,0.05,66.9,0)" xlink:href="#av"/><use transform="matrix(0.05,0,0,0.05,75.9,0)" xlink:href="#az"/><use transform="matrix(0.05,0,0,0.05,85.9,0)" xlink:href="#au"/><use transform="matrix(0.05,0,0,0.05,94.9,0)" xlink:href="#ar"/><use transform="matrix(0.05,0,0,0.05,99.9,0)" xlink:href="#aw"/><use transform="matrix(0.05,0,0,0.05,109.9,0)" xlink:href="#aB"/><use transform="matrix(0.05,0,0,0.05,115.85000000000001,0)" xlink:href="#aZ"/><use transform="matrix(0.05,0,0,0.05,126.35000000000001,0)" xlink:href="#at"/><use transform="matrix(0.05,0,0,0.05,130.3,0)" xlink:href="#aA"/><use transform="matrix(0.05,0,0,0.05,140.3,0)" xlink:href="#ar"/><use transform="matrix(0.05,0,0,0.05,145.3,0)" xlink:href="#ba"/><use transform="matrix(0.05,0,0,0.05,155.8,0)" xlink:href="#bk"/></g><g id="W"><use transform="matrix(0.05,0,0,0.05,0,0)" xlink:href="#av"/><use transform="matrix(0.05,0,0,0.05,9,0)" xlink:href="#az"/><use transform="matrix(0.05,0,0,0.05,19,0)" xlink:href="#au"/><use transform="matrix(0.05,0,0,0.05,28,0)" xlink:href="#ar"/><use transform="matrix(0.05,0,0,0.05,33,0)" xlink:href="#aL"/></g><path fill="#333" d="M190 0L58-211 59 0H30v-248h39L202-35l-2-213h31V0h-41" id="bu"/><g id="X"><use transform="matrix(0.05,0,0,0.05,0,0)" xlink:href="#aY"/><use transform="matrix(0.05,0,0,0.05,14.950000000000001,0)" xlink:href="#bu"/><use transform="matrix(0.05,0,0,0.05,27.900000000000002,0)" xlink:href="#aC"/><use transform="matrix(0.05,0,0,0.05,33.85,0)" xlink:href="#aq"/><use transform="matrix(0.05,0,0,0.05,42.85,0)" xlink:href="#ar"/><use transform="matrix(0.05,0,0,0.05,47.85,0)" xlink:href="#ax"/><use transform="matrix(0.05,0,0,0.05,57.85,0)" xlink:href="#aD"/><use transform="matrix(0.05,0,0,0.05,62.85,0)" xlink:href="#aD"/><use transform="matrix(0.05,0,0,0.05,67.85,0)" xlink:href="#av"/><use transform="matrix(0.05,0,0,0.05,76.85,0)" xlink:href="#az"/><use transform="matrix(0.05,0,0,0.05,86.85,0)" xlink:href="#au"/><use transform="matrix(0.05,0,0,0.05,95.85,0)" xlink:href="#ar"/><use transform="matrix(0.05,0,0,0.05,100.85,0)" xlink:href="#aw"/><use transform="matrix(0.05,0,0,0.05,110.84999999999998,0)" xlink:href="#aB"/><use transform="matrix(0.05,0,0,0.05,116.80000000000001,0)" xlink:href="#aZ"/><use transform="matrix(0.05,0,0,0.05,127.30000000000001,0)" xlink:href="#at"/><use transform="matrix(0.05,0,0,0.05,131.25,0)" xlink:href="#aA"/><use transform="matrix(0.05,0,0,0.05,141.25,0)" xlink:href="#ar"/><use transform="matrix(0.05,0,0,0.05,146.25,0)" xlink:href="#ba"/><use transform="matrix(0.05,0,0,0.05,156.75,0)" xlink:href="#bk"/></g><path fill="#333" d="M137-103V0h-34v-103L8-248h37l75 118 75-118h37" id="bv"/><g id="Y"><use transform="matrix(0.05,0,0,0.05,0,0)" xlink:href="#aY"/><use transform="matrix(0.05,0,0,0.05,14.950000000000001,0)" xlink:href="#bv"/><use transform="matrix(0.05,0,0,0.05,26.950000000000003,0)" xlink:href="#aC"/><use transform="matrix(0.05,0,0,0.05,32.900000000000006,0)" xlink:href="#aq"/><use transform="matrix(0.05,0,0,0.05,41.900000000000006,0)" xlink:href="#ar"/><use transform="matrix(0.05,0,0,0.05,46.900000000000006,0)" xlink:href="#ax"/><use transform="matrix(0.05,0,0,0.05,56.900000000000006,0)" xlink:href="#aD"/><use transform="matrix(0.05,0,0,0.05,61.900000000000006,0)" xlink:href="#aD"/><use transform="matrix(0.05,0,0,0.05,66.9,0)" xlink:href="#av"/><use transform="matrix(0.05,0,0,0.05,75.9,0)" xlink:href="#az"/><use transform="matrix(0.05,0,0,0.05,85.9,0)" xlink:href="#au"/><use transform="matrix(0.05,0,0,0.05,94.9,0)" xlink:href="#ar"/><use transform="matrix(0.05,0,0,0.05,99.9,0)" xlink:href="#aw"/><use transform="matrix(0.05,0,0,0.05,109.9,0)" xlink:href="#aB"/><use transform="matrix(0.05,0,0,0.05,115.85000000000001,0)" xlink:href="#aZ"/><use transform="matrix(0.05,0,0,0.05,126.35000000000001,0)" xlink:href="#at"/><use transform="matrix(0.05,0,0,0.05,130.3,0)" xlink:href="#aA"/><use transform="matrix(0.05,0,0,0.05,140.3,0)" xlink:href="#ar"/><use transform="matrix(0.05,0,0,0.05,145.3,0)" xlink:href="#ba"/><use transform="matrix(0.05,0,0,0.05,155.8,0)" xlink:href="#bk"/></g><g id="Z"><use transform="matrix(0.05,0,0,0.05,0,0)" xlink:href="#aY"/><use transform="matrix(0.05,0,0,0.05,14.950000000000001,0)" xlink:href="#bt"/><use transform="matrix(0.05,0,0,0.05,28.950000000000003,0)" xlink:href="#aC"/><use transform="matrix(0.05,0,0,0.05,34.900000000000006,0)" xlink:href="#aq"/><use transform="matrix(0.05,0,0,0.05,43.900000000000006,0)" xlink:href="#ar"/><use transform="matrix(0.05,0,0,0.05,48.900000000000006,0)" xlink:href="#ax"/><use transform="matrix(0.05,0,0,0.05,58.900000000000006,0)" xlink:href="#aD"/><use transform="matrix(0.05,0,0,0.05,63.900000000000006,0)" xlink:href="#aD"/><use transform="matrix(0.05,0,0,0.05,68.9,0)" xlink:href="#av"/><use transform="matrix(0.05,0,0,0.05,77.9,0)" xlink:href="#az"/><use transform="matrix(0.05,0,0,0.05,87.9,0)" xlink:href="#au"/><use transform="matrix(0.05,0,0,0.05,96.9,0)" xlink:href="#ar"/><use transform="matrix(0.05,0,0,0.05,101.9,0)" xlink:href="#aw"/><use transform="matrix(0.05,0,0,0.05,111.9,0)" xlink:href="#aB"/><use transform="matrix(0.05,0,0,0.05,117.85000000000001,0)" xlink:href="#aZ"/><use transform="matrix(0.05,0,0,0.05,128.35000000000002,0)" xlink:href="#at"/><use transform="matrix(0.05,0,0,0.05,132.3,0)" xlink:href="#aA"/><use transform="matrix(0.05,0,0,0.05,142.3,0)" xlink:href="#ar"/><use transform="matrix(0.05,0,0,0.05,147.3,0)" xlink:href="#ba"/><use transform="matrix(0.05,0,0,0.05,157.8,0)" xlink:href="#bk"/></g><g id="aa"><use transform="matrix(0.05,0,0,0.05,0,0)" xlink:href="#aY"/><use transform="matrix(0.05,0,0,0.05,14.950000000000001,0)" xlink:href="#aW"/><use transform="matrix(0.05,0,0,0.05,27.900000000000002,0)" xlink:href="#aC"/><use transform="matrix(0.05,0,0,0.05,33.85,0)" xlink:href="#aq"/><use transform="matrix(0.05,0,0,0.05,42.85,0)" xlink:href="#ar"/><use transform="matrix(0.05,0,0,0.05,47.85,0)" xlink:href="#ax"/><use transform="matrix(0.05,0,0,0.05,57.85,0)" xlink:href="#aD"/><use transform="matrix(0.05,0,0,0.05,62.85,0)" xlink:href="#aD"/><use transform="matrix(0.05,0,0,0.05,67.85,0)" xlink:href="#av"/><use transform="matrix(0.05,0,0,0.05,76.85,0)" xlink:href="#az"/><use transform="matrix(0.05,0,0,0.05,86.85,0)" xlink:href="#au"/><use transform="matrix(0.05,0,0,0.05,95.85,0)" xlink:href="#ar"/><use transform="matrix(0.05,0,0,0.05,100.85,0)" xlink:href="#aw"/><use transform="matrix(0.05,0,0,0.05,110.84999999999998,0)" xlink:href="#aB"/><use transform="matrix(0.05,0,0,0.05,116.80000000000001,0)" xlink:href="#aZ"/><use transform="matrix(0.05,0,0,0.05,127.30000000000001,0)" xlink:href="#at"/><use transform="matrix(0.05,0,0,0.05,131.25,0)" xlink:href="#aA"/><use transform="matrix(0.05,0,0,0.05,141.25,0)" xlink:href="#ar"/><use transform="matrix(0.05,0,0,0.05,146.25,0)" xlink:href="#ba"/><use transform="matrix(0.05,0,0,0.05,156.75,0)" xlink:href="#bk"/></g><g id="ab"><use transform="matrix(0.05,0,0,0.05,0,0)" xlink:href="#aY"/><use transform="matrix(0.05,0,0,0.05,14.950000000000001,0)" xlink:href="#aJ"/><use transform="matrix(0.05,0,0,0.05,26.950000000000003,0)" xlink:href="#aC"/><use transform="matrix(0.05,0,0,0.05,32.900000000000006,0)" xlink:href="#aq"/><use transform="matrix(0.05,0,0,0.05,41.900000000000006,0)" xlink:href="#ar"/><use transform="matrix(0.05,0,0,0.05,46.900000000000006,0)" xlink:href="#ax"/><use transform="matrix(0.05,0,0,0.05,56.900000000000006,0)" xlink:href="#aD"/><use transform="matrix(0.05,0,0,0.05,61.900000000000006,0)" xlink:href="#aD"/><use transform="matrix(0.05,0,0,0.05,66.9,0)" xlink:href="#av"/><use transform="matrix(0.05,0,0,0.05,75.9,0)" xlink:href="#az"/><use transform="matrix(0.05,0,0,0.05,85.9,0)" xlink:href="#au"/><use transform="matrix(0.05,0,0,0.05,94.9,0)" xlink:href="#ar"/><use transform="matrix(0.05,0,0,0.05,99.9,0)" xlink:href="#aw"/><use transform="matrix(0.05,0,0,0.05,109.9,0)" xlink:href="#aB"/><use transform="matrix(0.05,0,0,0.05,115.85000000000001,0)" xlink:href="#aZ"/><use transform="matrix(0.05,0,0,0.05,126.35000000000001,0)" xlink:href="#at"/><use transform="matrix(0.05,0,0,0.05,130.3,0)" xlink:href="#aA"/><use transform="matrix(0.05,0,0,0.05,140.3,0)" xlink:href="#ar"/><use transform="matrix(0.05,0,0,0.05,145.3,0)" xlink:href="#ba"/><use transform="matrix(0.05,0,0,0.05,155.8,0)" xlink:href="#bk"/></g><g id="ac"><use transform="matrix(0.05,0,0,0.05,0,0)" xlink:href="#ap"/><use transform="matrix(0.05,0,0,0.05,10.5,0)" xlink:href="#aq"/><use transform="matrix(0.05,0,0,0.05,19.5,0)" xlink:href="#ar"/><use transform="matrix(0.05,0,0,0.05,24.5,0)" xlink:href="#ax"/><use transform="matrix(0.05,0,0,0.05,34.5,0)" xlink:href="#aD"/><use transform="matrix(0.05,0,0,0.05,39.5,0)" xlink:href="#aD"/><use transform="matrix(0.05,0,0,0.05,44.5,0)" xlink:href="#aq"/><use transform="matrix(0.05,0,0,0.05,53.5,0)" xlink:href="#ar"/><use transform="matrix(0.05,0,0,0.05,58.5,0)" xlink:href="#aB"/><use transform="matrix(0.05,0,0,0.05,64.45,0)" xlink:href="#at"/><use transform="matrix(0.05,0,0,0.05,68.4,0)" xlink:href="#aA"/><use transform="matrix(0.05,0,0,0.05,78.4,0)" xlink:href="#aE"/></g><path fill="#333" d="M233-177c-1 41-23 64-60 70L243 0h-38l-65-103H63V0H30v-248c88 3 205-21 203 71zM63-129c60-2 137 13 137-47 0-61-80-42-137-45v92" id="bw"/><g id="ad"><use transform="matrix(0.05,0,0,0.05,0,0)" xlink:href="#aE"/><use transform="matrix(0.05,0,0,0.05,10,0)" xlink:href="#az"/><use transform="matrix(0.05,0,0,0.05,20,0)" xlink:href="#ar"/><use transform="matrix(0.05,0,0,0.05,25,0)" xlink:href="#bw"/><use transform="matrix(0.05,0,0,0.05,37.95,0)" xlink:href="#az"/><use transform="matrix(0.05,0,0,0.05,47.95,0)" xlink:href="#aq"/><use transform="matrix(0.05,0,0,0.05,56.95,0)" xlink:href="#aX"/><use transform="matrix(0.05,0,0,0.05,66.95,0)" xlink:href="#ay"/><use transform="matrix(0.05,0,0,0.05,70.9,0)" xlink:href="#ar"/><use transform="matrix(0.05,0,0,0.05,75.9,0)" xlink:href="#as"/><use transform="matrix(0.05,0,0,0.05,85.9,0)" xlink:href="#ax"/><use transform="matrix(0.05,0,0,0.05,95.9,0)" xlink:href="#aw"/><use transform="matrix(0.05,0,0,0.05,105.9,0)" xlink:href="#aC"/><use transform="matrix(0.05,0,0,0.05,111.85000000000001,0)" xlink:href="#aL"/></g><g id="ae"><use transform="matrix(0.05,0,0,0.05,0,0)" xlink:href="#aB"/><use transform="matrix(0.05,0,0,0.05,5.95,0)" xlink:href="#az"/><use transform="matrix(0.05,0,0,0.05,15.949999999999998,0)" xlink:href="#aq"/><use transform="matrix(0.05,0,0,0.05,24.95,0)" xlink:href="#az"/><use transform="matrix(0.05,0,0,0.05,34.95,0)" xlink:href="#ar"/><use transform="matrix(0.05,0,0,0.05,39.95,0)" xlink:href="#bw"/><use transform="matrix(0.05,0,0,0.05,52.900000000000006,0)" xlink:href="#az"/><use transform="matrix(0.05,0,0,0.05,62.900000000000006,0)" xlink:href="#aq"/><use transform="matrix(0.05,0,0,0.05,71.9,0)" xlink:href="#aX"/><use transform="matrix(0.05,0,0,0.05,81.9,0)" xlink:href="#ay"/><use transform="matrix(0.05,0,0,0.05,85.85000000000001,0)" xlink:href="#ar"/><use transform="matrix(0.05,0,0,0.05,90.85000000000001,0)" xlink:href="#as"/><use transform="matrix(0.05,0,0,0.05,100.85000000000001,0)" xlink:href="#ax"/><use transform="matrix(0.05,0,0,0.05,110.85000000000001,0)" xlink:href="#aw"/><use transform="matrix(0.05,0,0,0.05,120.85000000000001,0)" xlink:href="#aC"/><use transform="matrix(0.05,0,0,0.05,126.80000000000001,0)" xlink:href="#aL"/></g><g id="af"><use transform="matrix(0.04320987654320988,0,0,0.04320987654320988,0,0)" xlink:href="#bh"/><use transform="matrix(0.04320987654320988,0,0,0.04320987654320988,8.641975308641976,0)" xlink:href="#aV"/><use transform="matrix(0.04320987654320988,0,0,0.04320987654320988,17.283950617283953,0)" xlink:href="#aw"/><use transform="matrix(0.04320987654320988,0,0,0.04320987654320988,25.925925925925927,0)" xlink:href="#aq"/><use transform="matrix(0.04320987654320988,0,0,0.04320987654320988,33.70370370370371,0)" xlink:href="#az"/><use transform="matrix(0.04320987654320988,0,0,0.04320987654320988,42.345679012345684,0)" xlink:href="#az"/><use transform="matrix(0.04320987654320988,0,0,0.04320987654320988,50.98765432098766,0)" xlink:href="#bi"/></g></defs></g></svg>